<?xml version="1.0" encoding="UTF-8" standalone="no"?>
<!DOCTYPE svg PUBLIC "-//W3C//DTD SVG 1.1//EN"
 "http://www.w3.org/Graphics/SVG/1.1/DTD/svg11.dtd">
<!-- Generated by graphviz version 2.40.1 (0)
 -->
<!-- Title: %3 Pages: 1 -->
<svg width="309pt" height="355pt"
 viewBox="0.00 0.00 309.00 355.00" xmlns="http://www.w3.org/2000/svg" xmlns:xlink="http://www.w3.org/1999/xlink">
<g id="graph0" class="graph" transform="scale(1 1) rotate(0) translate(4 351)">
<title>%3</title>
<polygon fill="#3f3f3f" stroke="transparent" points="-4,4 -4,-351 305,-351 305,4 -4,4"/>
<text text-anchor="middle" x="150.5" y="-9.2" font-family="Times,serif" font-size="16.00" fill="#ffffff">Network Map</text>
<!-- spb&#45;leaf02&#45;mdf01 -->
<g id="node1" class="node">
<title>spb&#45;leaf02&#45;mdf01</title>
<polygon fill="#006699" stroke="#006699" points="164,-223 0,-223 0,-150 164,-150 164,-223"/>
<text text-anchor="middle" x="82" y="-182.8" font-family="Helvetica,sans-Serif" font-size="14.00" fill="#ffffff">spb&#45;leaf02&#45;mdf01</text>
</g>
<!-- spb&#45;leaf03&#45;mdf01 -->
<g id="node2" class="node">
<title>spb&#45;leaf03&#45;mdf01</title>
<polygon fill="#006699" stroke="#006699" points="223,-347 59,-347 59,-274 223,-274 223,-347"/>
<text text-anchor="middle" x="141" y="-306.8" font-family="Helvetica,sans-Serif" font-size="14.00" fill="#ffffff">spb&#45;leaf03&#45;mdf01</text>
</g>
<!-- spb&#45;leaf02&#45;mdf01&#45;&#45;spb&#45;leaf03&#45;mdf01 -->
<g id="edge3" class="edge">
<title>spb&#45;leaf02&#45;mdf01&#45;&#45;spb&#45;leaf03&#45;mdf01</title>
<path fill="none" stroke="#00ff00" stroke-dasharray="5,2" d="M79.1928,-223.0445C79.6259,-234.0377 81.4283,-245.8643 86,-256 88.8741,-262.3719 92.8498,-268.4039 97.3611,-273.9712"/>
<text text-anchor="middle" x="136" y="-244.8" font-family="Courier,monospace" font-size="14.00" fill="#ffffff"> &#160;&#160;&#160;&#160;&#160;&#160;&#160;&#160;&#160;&#160;&#160;</text>
<text text-anchor="middle" x="76.3611" y="-262.7712" font-family="Courier,monospace" font-size="14.00" fill="#ffffff">gi1/2</text>
<text text-anchor="middle" x="58.1928" y="-226.8445" font-family="Courier,monospace" font-size="14.00" fill="#ffffff">gi1/2</text>
</g>
<!-- spb&#45;leaf01&#45;mdf01 -->
<g id="node3" class="node">
<title>spb&#45;leaf01&#45;mdf01</title>
<polygon fill="#006699" stroke="#006699" points="223,-99 59,-99 59,-26 223,-26 223,-99"/>
<text text-anchor="middle" x="141" y="-58.8" font-family="Helvetica,sans-Serif" font-size="14.00" fill="#ffffff">spb&#45;leaf01&#45;mdf01</text>
</g>
<!-- spb&#45;leaf01&#45;mdf01&#45;&#45;spb&#45;leaf02&#45;mdf01 -->
<g id="edge1" class="edge">
<title>spb&#45;leaf01&#45;mdf01&#45;&#45;spb&#45;leaf02&#45;mdf01</title>
<path fill="none" stroke="#00ff00" stroke-dasharray="5,2" d="M97.3611,-99.0288C92.8498,-104.5961 88.8741,-110.6281 86,-117 81.4283,-127.1357 79.6259,-138.9623 79.1928,-149.9555"/>
<text text-anchor="middle" x="136" y="-120.8" font-family="Courier,monospace" font-size="14.00" fill="#ffffff"> &#160;&#160;&#160;&#160;&#160;&#160;&#160;&#160;&#160;&#160;&#160;</text>
<text text-anchor="middle" x="58.1928" y="-138.7555" font-family="Courier,monospace" font-size="14.00" fill="#ffffff">gi1/1</text>
<text text-anchor="middle" x="76.3611" y="-102.8288" font-family="Courier,monospace" font-size="14.00" fill="#ffffff">gi1/1</text>
</g>
<!-- spb&#45;leaf01&#45;mdf01&#45;&#45;spb&#45;leaf03&#45;mdf01 -->
<g id="edge2" class="edge">
<title>spb&#45;leaf01&#45;mdf01&#45;&#45;spb&#45;leaf03&#45;mdf01</title>
<path fill="none" stroke="#00ff00" stroke-dasharray="5,2" d="M176.6511,-99.1015C180.4603,-104.7349 183.7585,-110.7647 186,-117 206.8991,-175.1354 206.8991,-197.8646 186,-256 183.7585,-262.2353 180.4603,-268.2651 176.6511,-273.8985"/>
<text text-anchor="middle" x="251" y="-182.8" font-family="Courier,monospace" font-size="14.00" fill="#ffffff"> &#160;&#160;&#160;&#160;&#160;&#160;&#160;&#160;&#160;&#160;&#160;</text>
<text text-anchor="middle" x="155.6511" y="-262.6985" font-family="Courier,monospace" font-size="14.00" fill="#ffffff">gi1/3</text>
<text text-anchor="middle" x="155.6511" y="-102.9015" font-family="Courier,monospace" font-size="14.00" fill="#ffffff">gi1/3</text>
</g>
</g>
</svg>
