<?xml version="1.0" encoding="UTF-8" standalone="no"?>
<!DOCTYPE svg PUBLIC "-//W3C//DTD SVG 1.1//EN"
 "http://www.w3.org/Graphics/SVG/1.1/DTD/svg11.dtd">
<!-- Generated by graphviz version 2.43.0 (0)
 -->
<!-- Title: %3 Pages: 1 -->
<svg width="386pt" height="355pt"
 viewBox="0.00 0.00 386.00 355.00" xmlns="http://www.w3.org/2000/svg" xmlns:xlink="http://www.w3.org/1999/xlink">
<g id="graph0" class="graph" transform="scale(1 1) rotate(0) translate(4 351)">
<title>%3</title>
<polygon fill="#3f3f3f" stroke="transparent" points="-4,4 -4,-351 382,-351 382,4 -4,4"/>
<text text-anchor="middle" x="189" y="-9.2" font-family="Times,serif" font-size="16.00" fill="white">Network Map</text>
<!-- spb&#45;leaf01&#45;mdf01 -->
<g id="node1" class="node">
<title>spb&#45;leaf01&#45;mdf01</title>
<polygon fill="#006699" stroke="#006699" points="228,-99 44,-99 44,-26 228,-26 228,-99"/>
<text text-anchor="middle" x="136" y="-58.8" font-family="Helvetica,sans-Serif" font-size="14.00" fill="white">spb&#45;leaf01&#45;mdf01</text>
</g>
<!-- spb&#45;leaf03&#45;mdf01 -->
<g id="node2" class="node">
<title>spb&#45;leaf03&#45;mdf01</title>
<polygon fill="#006699" stroke="#006699" points="184,-347 0,-347 0,-274 184,-274 184,-347"/>
<text text-anchor="middle" x="92" y="-306.8" font-family="Helvetica,sans-Serif" font-size="14.00" fill="white">spb&#45;leaf03&#45;mdf01</text>
</g>
<!-- spb&#45;leaf01&#45;mdf01&#45;&#45;spb&#45;leaf03&#45;mdf01 -->
<g id="edge2" class="edge">
<title>spb&#45;leaf01&#45;mdf01&#45;&#45;spb&#45;leaf03&#45;mdf01</title>
<path fill="none" stroke="green" stroke-dasharray="5,2" d="M109.27,-99.01C99.63,-113.94 89.91,-132 85,-150 73.69,-191.45 78.64,-241.18 84.31,-273.96"/>
<text text-anchor="middle" x="135" y="-182.8" font-family="Courier,monospace" font-size="14.00" fill="white"> &#160;&#160;&#160;&#160;&#160;&#160;&#160;&#160;&#160;&#160;&#160;</text>
<text text-anchor="middle" x="63.31" y="-262.76" font-family="Courier,monospace" font-size="14.00" fill="white">gi1/3</text>
<text text-anchor="middle" x="88.27" y="-102.81" font-family="Courier,monospace" font-size="14.00" fill="white">gi1/3</text>
</g>
<!-- spb&#45;leaf02&#45;mdf01 -->
<g id="node3" class="node">
<title>spb&#45;leaf02&#45;mdf01</title>
<polygon fill="#006699" stroke="#006699" points="378,-223 194,-223 194,-150 378,-150 378,-223"/>
<text text-anchor="middle" x="286" y="-182.8" font-family="Helvetica,sans-Serif" font-size="14.00" fill="white">spb&#45;leaf02&#45;mdf01</text>
</g>
<!-- spb&#45;leaf01&#45;mdf01&#45;&#45;spb&#45;leaf02&#45;mdf01 -->
<g id="edge1" class="edge">
<title>spb&#45;leaf01&#45;mdf01&#45;&#45;spb&#45;leaf02&#45;mdf01</title>
<path fill="none" stroke="green" stroke-dasharray="5,2" d="M179.79,-99.12C199.42,-115.08 222.52,-133.87 242.16,-149.84"/>
<text text-anchor="middle" x="269" y="-120.8" font-family="Courier,monospace" font-size="14.00" fill="white"> &#160;&#160;&#160;&#160;&#160;&#160;&#160;&#160;&#160;&#160;&#160;</text>
<text text-anchor="middle" x="221.16" y="-138.64" font-family="Courier,monospace" font-size="14.00" fill="white">gi1/1</text>
<text text-anchor="middle" x="158.79" y="-102.92" font-family="Courier,monospace" font-size="14.00" fill="white">gi1/1</text>
</g>
<!-- spb&#45;leaf02&#45;mdf01&#45;&#45;spb&#45;leaf03&#45;mdf01 -->
<g id="edge3" class="edge">
<title>spb&#45;leaf02&#45;mdf01&#45;&#45;spb&#45;leaf03&#45;mdf01</title>
<path fill="none" stroke="green" stroke-dasharray="5,2" d="M229.37,-223.12C203.98,-239.08 174.1,-257.87 148.7,-273.84"/>
<text text-anchor="middle" x="250" y="-244.8" font-family="Courier,monospace" font-size="14.00" fill="white"> &#160;&#160;&#160;&#160;&#160;&#160;&#160;&#160;&#160;&#160;&#160;</text>
<text text-anchor="middle" x="127.7" y="-262.64" font-family="Courier,monospace" font-size="14.00" fill="white">gi1/2</text>
<text text-anchor="middle" x="208.37" y="-226.92" font-family="Courier,monospace" font-size="14.00" fill="white">gi1/2</text>
</g>
</g>
</svg>
