<?xml version="1.0" encoding="UTF-8" standalone="no"?>
<!DOCTYPE svg PUBLIC "-//W3C//DTD SVG 1.1//EN"
 "http://www.w3.org/Graphics/SVG/1.1/DTD/svg11.dtd">
<!-- Generated by graphviz version 2.40.1 (0)
 -->
<!-- Title: %3 Pages: 1 -->
<svg width="270pt" height="231pt"
 viewBox="0.00 0.00 269.92 231.00" xmlns="http://www.w3.org/2000/svg" xmlns:xlink="http://www.w3.org/1999/xlink">
<g id="graph0" class="graph" transform="scale(1 1) rotate(0) translate(4 227)">
<title>%3</title>
<polygon fill="#3f3f3f" stroke="transparent" points="-4,4 -4,-227 265.9167,-227 265.9167,4 -4,4"/>
<text text-anchor="middle" x="130.9583" y="-9.2" font-family="Times,serif" font-size="16.00" fill="#ffffff">Network Map</text>
<!-- R4 -->
<g id="node1" class="node">
<title>R4</title>
<polygon fill="#006699" stroke="#006699" points="153.9167,-99 77.9167,-99 77.9167,-26 153.9167,-26 153.9167,-99"/>
<text text-anchor="middle" x="115.9167" y="-58.8" font-family="Helvetica,sans-Serif" font-size="14.00" fill="#ffffff">R4</text>
</g>
<!-- R6 -->
<g id="node2" class="node">
<title>R6</title>
<polygon fill="#006699" stroke="#006699" points="92.9167,-223 16.9167,-223 16.9167,-150 92.9167,-150 92.9167,-223"/>
<text text-anchor="middle" x="54.9167" y="-182.8" font-family="Helvetica,sans-Serif" font-size="14.00" fill="#ffffff">R6</text>
</g>
<!-- R4&#45;&#45;R6 -->
<g id="edge2" class="edge">
<title>R4&#45;&#45;R6</title>
<path fill="none" stroke="#00ff00" stroke-dasharray="5,2" d="M77.6416,-88.6558C68.91,-96.6538 60.7787,-106.2254 55.9167,-117 51.3504,-127.1193 49.9369,-138.9413 50,-149.9353"/>
<text text-anchor="middle" x="105.9167" y="-120.8" font-family="Courier,monospace" font-size="14.00" fill="#ffffff"> &#160;&#160;&#160;&#160;&#160;&#160;&#160;&#160;&#160;&#160;&#160;</text>
<text text-anchor="middle" x="25" y="-138.7353" font-family="Courier,monospace" font-size="14.00" fill="#ffffff">Eth0/0</text>
<text text-anchor="middle" x="52.6416" y="-77.4558" font-family="Courier,monospace" font-size="14.00" fill="#ffffff">Eth0/2</text>
</g>
<!-- R5 -->
<g id="node3" class="node">
<title>R5</title>
<polygon fill="#006699" stroke="#006699" points="215.9167,-223 139.9167,-223 139.9167,-150 215.9167,-150 215.9167,-223"/>
<text text-anchor="middle" x="177.9167" y="-182.8" font-family="Helvetica,sans-Serif" font-size="14.00" fill="#ffffff">R5</text>
</g>
<!-- R4&#45;&#45;R5 -->
<g id="edge1" class="edge">
<title>R4&#45;&#45;R5</title>
<path fill="none" stroke="#00ff00" stroke-dasharray="5,2" d="M145.3598,-99.2843C149.2246,-105.0244 152.8877,-111.035 155.9167,-117 161.1311,-127.269 165.4183,-139.0192 168.7785,-149.9001"/>
<text text-anchor="middle" x="211.9167" y="-120.8" font-family="Courier,monospace" font-size="14.00" fill="#ffffff"> &#160;&#160;&#160;&#160;&#160;&#160;&#160;&#160;&#160;&#160;&#160;</text>
<text text-anchor="middle" x="143.7785" y="-138.7001" font-family="Courier,monospace" font-size="14.00" fill="#ffffff">Eth0/1</text>
<text text-anchor="middle" x="120.3598" y="-103.0843" font-family="Courier,monospace" font-size="14.00" fill="#ffffff">Eth0/1</text>
</g>
</g>
</svg>
